<?xml version="1.0" encoding="UTF-8"?>
<svg width="32px" height="32px" viewBox="0 0 32 32" version="1.1" xmlns="http://www.w3.org/2000/svg" xmlns:xlink="http://www.w3.org/1999/xlink">
    <!-- Generator: Sketch 50.2 (55047) - http://www.bohemiancoding.com/sketch -->
    <title>btc</title>
    <desc>Created with Sketch.</desc>
    <defs></defs>
    <g id="Page-1" stroke="none" stroke-width="1" fill="none" fill-rule="evenodd">
        <g id="btc" fill-rule="nonzero">
            <circle id="Oval" fill="#F7931A" cx="16" cy="16" r="16"></circle>
            <path d="M23.2,14 C23.5,11.9 21.9,10.8 19.7,10 L20.4,7.2 L18.7,6.8 L18,9.5 C17.5,9.4 17.1,9.3 16.6,9.2 L17.3,6.4 L15.6,6 L14.9,8.8 C14.5,8.7 14.2,8.6 13.8,8.5 L11.4,8 L10.9,9.8 L12.2,10.1 C12.9,10.3 13,10.7 13,11.1 L12.2,14.3 C12.2,14.3 12.3,14.3 12.4,14.4 L12.2,14.4 L11.1,18.9 C11,19.1 10.8,19.4 10.3,19.3 L9,19 L8.1,21 L10.3,21.6 C10.7,21.7 11.1,21.8 11.5,21.9 L10.8,24.8 L12.5,25.2 L13.2,22.4 C13.7,22.5 14.1,22.6 14.6,22.8 L14,25.5 L15.7,25.9 L16.4,23 C19.3,23.6 21.6,23.3 22.5,20.7 C23.3,18.6 22.5,17.3 20.9,16.5 C22.1,16.3 23,15.6 23.2,14 Z M19.2,19.6 C18.7,21.7 15.1,20.6 13.9,20.3 L14.8,16.5 C16,16.7 19.8,17.3 19.2,19.6 Z M19.8,14 C19.3,16 16.3,15 15.3,14.7 L16.2,11.3 C17.1,11.5 20.3,12 19.8,14 Z" id="Shape" fill="#FFFFFF"></path>
        </g>
    </g>
</svg>