<?xml version="1.0" encoding="UTF-8"?>
<svg width="36px" height="36px" viewBox="0 0 36 36" version="1.1" xmlns="http://www.w3.org/2000/svg" xmlns:xlink="http://www.w3.org/1999/xlink">
    <!-- Generator: Sketch 56.3 (81716) - https://sketch.com -->
    <title>Coinify_Square</title>
    <desc>Created with Sketch.</desc>
    <g id="Connect-•-Transfer-•-Buy" stroke="none" stroke-width="1" fill="none" fill-rule="evenodd">
        <g id="None_PM" transform="translate(-66.000000, -428.000000)">
            <g id="Coinify_Square" transform="translate(66.000000, 428.000000)">
                <rect id="Rectangle" fill="#F4C567" x="0" y="0" width="36" height="36" rx="5"></rect>
                <path d="M25.2132178,25.213189 L18.1421356,32.2842712 L11.0710666,25.213189 C12.8807107,27.022847 15.3807112,28.1421356 18.1421356,28.1421356 C20.9035419,28.1421356 23.4035277,27.0228617 25.2132178,25.213189 L25.2132178,25.213189 L25.2132178,25.213189 Z M25.2131834,11.0710477 C23.4035409,9.26141547 20.9035492,8.14213562 18.1421356,8.14213562 C12.6192881,8.14213562 8.14213562,12.6192881 8.14213562,18.1421356 C8.14213562,20.9035587 9.26142324,23.4035582 11.0710666,25.2132022 L4,18.1421356 L18.1421356,4 L25.2131834,11.0710477 Z M25.2131834,11.0710477 L32.2842712,18.1421356 L25.2132178,25.213189 C26.5048245,23.9215772 27.4447494,22.2782848 27.8770365,20.439268 L21.8468845,19.6531865 C21.2507601,21.1132451 19.816603,22.1421356 18.1421356,22.1421356 C15.9329966,22.1421356 14.1421356,20.3512746 14.1421356,18.1421356 C14.1421356,15.9329966 15.9329966,14.1421356 18.1421356,14.1421356 C19.9987769,14.1421356 21.5599743,15.407081 22.0109233,17.1221673 L27.9513042,16.1880355 C27.5595359,14.2103482 26.5846,12.4424567 25.2131834,11.0710477 Z" id="Combined-Shape" fill="#FFFFFF" fill-rule="nonzero"></path>
            </g>
        </g>
    </g>
</svg>