<?xml version="1.0" encoding="UTF-8"?>
<svg width="50px" height="50px" viewBox="0 0 50 50" version="1.1" xmlns="http://www.w3.org/2000/svg" xmlns:xlink="http://www.w3.org/1999/xlink">
    <!-- Generator: Sketch 53.2 (72643) - https://sketchapp.com -->
    <title>coinbase-square</title>
    <desc>Created with Sketch.</desc>
    <g id="coinbase-square" stroke="none" stroke-width="1" fill="none" fill-rule="evenodd">
        <path d="M8,0 L42,0 C46.418278,-8.11624501e-16 50,3.581722 50,8 L50,42 C50,46.418278 46.418278,50 42,50 L8,50 C3.581722,50 5.41083001e-16,46.418278 0,42 L0,8 C-5.41083001e-16,3.581722 3.581722,8.11624501e-16 8,0 Z" id="coinbase-bg" fill="#1372E1"></path>
        <g id="coinbase.logo--" transform="translate(16.000000, 13.000000)" fill="#FFFFFF" fill-rule="nonzero">
            <path d="M10.654511,25 C5.27027896,25 0,21.1581544 0,12.4858347 C0,3.78531517 5.27027896,0 10.654511,0 C13.3038699,0 15.3834635,0.677972756 16.8649191,1.63840144 L15.2410717,5.16946047 C14.243999,4.46328792 12.7626094,4.01124066 11.2812198,4.01124066 C8.0335909,4.01124066 5.07081167,6.55367121 5.07081167,12.4293697 C5.07081167,18.3050681 8.11903917,20.9038983 11.2812198,20.9038983 C12.7626094,20.9038983 14.243999,20.4519818 15.2410717,19.7457439 L16.8649191,23.3615985 C15.32652,24.3785577 13.3038699,25 10.654511,25" id="coinbase.logo.svg"></path>
        </g>
    </g>
</svg>