
<?xml version="1.0" encoding="UTF-8"?>
<svg width="32px" height="32px" viewBox="0 0 32 32" version="1.1" xmlns="http://www.w3.org/2000/svg" xmlns:xlink="http://www.w3.org/1999/xlink">
    <!-- Generator: Sketch 50.2 (55047) - http://www.bohemiancoding.com/sketch -->
    <title>eth-pur</title>
    <desc>Created with Sketch.</desc>
    <defs></defs>
    <g id="Page-1" stroke="none" stroke-width="1" fill="none" fill-rule="evenodd">
        <g id="eth-pur" fill-rule="nonzero">
            <g id="Layer_1_1_">
                <circle id="Oval" fill="#7F69EE" cx="16" cy="16" r="16"></circle>
                <g id="Group" transform="translate(9.000000, 4.000000)" fill="#FFFFFF">
                    <polygon id="Shape" fill-opacity="0.602" points="7.5 0 7.5 8.9 15 12.2"></polygon>
                    <polygon id="Shape" points="7.5 0 0 12.2 7.5 8.9"></polygon>
                    <polygon id="Shape" fill-opacity="0.602" points="7.5 18 7.5 24 15 13.6"></polygon>
                    <polygon id="Shape" points="7.5 24 7.5 18 0 13.6"></polygon>
                    <polygon id="Shape" fill-opacity="0.2" points="7.5 16.6 15 12.2 7.5 8.9"></polygon>
                    <polygon id="Shape" fill-opacity="0.602" points="0 12.2 7.5 16.6 7.5 8.9"></polygon>
                </g>
                <polygon id="Shape" fill="#FFFFFF" opacity="0.9" points="16.5 12.9 9 16.2 16.5 20.6"></polygon>
            </g>
            <g id="Layer_4" transform="translate(16.000000, 4.000000)" fill="#FFFFFF">
                <polygon id="Shape" opacity="0.85" points="0.5 8.9 0.5 0 8 12.2"></polygon>
                <polyline id="Shape" opacity="0.8" points="0.5 18 0.5 24 8 13.6 0.5 18"></polyline>
            </g>
            <g id="Layer_6" transform="translate(16.000000, 12.000000)" fill="#FFFFFF">
                <polygon id="Shape" points="0.5 0.9 0.5 8.6 8 4.2"></polygon>
            </g>
            <g id="Layer_2_1_" transform="translate(16.000000, 12.000000)" fill="#FFFFFF">
                <polygon id="Shape" points="0.5 0.9 0.5 8.6 8 4.2"></polygon>
            </g>
            <g id="Layer_5" opacity="0.15" transform="translate(9.000000, 4.000000)" fill="#000000">
                <polyline id="Shape" points="7.5 8.9 0 12.2 7.5 0 7.5 8.9"></polyline>
                <polygon id="Shape" points="7.5 18 7.5 24 0 13.6"></polygon>
            </g>
        </g>
    </g>
</svg>